# xmcd
#
# Track frame offsets:
#	150
#	21714
#	83468
#	95805
#	116636
#	132910
#	149810
#
# Disc length: 2265 seconds
#
# Revision: 1
# Processed by: cddbd v1.5.2PL0 Copyright (c) Steve Scherf et al.
# Submitted via: audiograbber 1.83.01
#
DISCID=6608d707
DTITLE=Mike Oldfield - Discovery [Deluxe Edition remastered 2016] [CD 2) - The 
DTITLE=1984 Suite
DYEAR=1984
DGENRE=Progressive Rock
TTITLE0=To France [with Maggie Reilly]
TTITLE1=The Lake
TTITLE2=The Killing Fields
TTITLE3=Étude
TTITLE4=The Royal Mile
TTITLE5=Zombies
TTITLE6=Discovery [with Barry Palmer]
EXTD=
EXTT0=
EXTT1=
EXTT2=
EXTT3=
EXTT4=
EXTT5=
EXTT6=
PLAYORDER=
